<svg width="179" height="41" viewBox="0 0 179 41" fill="none" xmlns="http://www.w3.org/2000/svg">
<mask id="mask0_1_349" style="mask-type:alpha" maskUnits="userSpaceOnUse" x="2" y="2" width="36" height="36">
<path d="M18.5871 3.17525C19.481 2.71425 20.5428 2.71425 21.4367 3.17525L35.6589 10.5095C36.693 11.0428 37.3427 12.1089 37.3427 13.2724V27.358C37.3427 28.5215 36.693 29.5876 35.6589 30.1209L21.4367 37.4552C20.5428 37.9161 19.481 37.9161 18.5871 37.4552L4.36493 30.1209C3.33083 29.5876 2.68109 28.5215 2.68109 27.358V13.2724C2.68109 12.1089 3.33082 11.0428 4.36493 10.5095L18.5871 3.17525Z" fill="#D9D9D9"/>
</mask>
<g mask="url(#mask0_1_349)">
<path d="M20.6941 2.88365C20.143 2.60506 19.4922 2.60506 18.9411 2.88365L2.33145 11.2797L19.8176 20.1189L37.3037 11.2797L20.6941 2.88365Z" fill="#F9A682"/>
<path d="M2.33145 11.2797V28.0992C2.33145 28.857 2.77209 29.5457 3.46017 29.8633L19.8176 37.4128V20.1189L2.33145 11.2797Z" fill="#BAE3E2"/>
<path d="M19.8176 20.1189V37.4128L36.175 29.8633C36.8631 29.5457 37.3037 28.857 37.3037 28.0992V11.2797L19.8176 20.1189Z" fill="#30B3AB"/>
</g>
<path d="M57.12 33H69.592V29.5034H61.5802V13.3146H57.12V33ZM78.5346 33.3029C82.4716 33.3029 84.9495 31.5683 85.4176 28.4572H81.6457C81.3979 29.6686 80.4893 30.467 78.6447 30.467C76.4697 30.467 75.1756 29.0904 75.0655 26.6952H85.4451V25.5939C85.4451 20.4454 82.1413 18.2703 78.4244 18.2703C74.2396 18.2703 71.0183 21.2163 71.0183 25.7591V25.9793C71.0183 30.5772 74.1845 33.3029 78.5346 33.3029ZM75.1206 24.2448C75.4234 22.2074 76.6348 21.0235 78.4244 21.0235C80.3241 21.0235 81.4254 22.0698 81.5631 24.2448H75.1206ZM92.0748 33.3029C94.3324 33.3029 95.5989 32.4218 96.4248 31.2655V33H100.307V23.6116C100.307 19.702 97.8014 18.2703 94.2773 18.2703C90.7532 18.2703 88.0551 19.7846 87.8073 23.1986H91.5792C91.7444 21.9596 92.4602 21.1612 94.0295 21.1612C95.8466 21.1612 96.3698 22.0973 96.3698 23.8043V24.3825H94.7454C90.3402 24.3825 87.2566 25.6489 87.2566 29.0078C87.2566 32.0364 89.4592 33.3029 92.0748 33.3029ZM93.2586 30.5221C91.7994 30.5221 91.1662 29.8338 91.1662 28.7876C91.1662 27.2458 92.5153 26.7502 94.828 26.7502H96.3698V27.9616C96.3698 29.5585 95.0207 30.5221 93.2586 30.5221ZM103.733 33H107.725V25.7866C107.725 23.0334 109.432 22.0698 112.378 22.0973V18.3805C110.038 18.408 108.634 19.4267 107.725 21.3539V18.6007H103.733V33ZM114.999 33H118.991V24.6853C118.991 22.5653 120.285 21.5191 121.992 21.5191C123.754 21.5191 124.525 22.4552 124.525 24.41V33H128.517V23.8318C128.517 19.9773 126.507 18.2703 123.671 18.2703C121.276 18.2703 119.707 19.4542 118.991 20.8859V18.6007H114.999V33ZM134.002 16.6459C135.296 16.6459 136.288 15.7098 136.288 14.4709C136.288 13.232 135.296 12.2959 134.002 12.2959C132.736 12.2959 131.745 13.232 131.745 14.4709C131.745 15.7098 132.736 16.6459 134.002 16.6459ZM132.048 33H136.012V18.6007H132.048V33ZM139.681 33H143.673V24.6853C143.673 22.5653 144.967 21.5191 146.674 21.5191C148.436 21.5191 149.207 22.4552 149.207 24.41V33H153.199V23.8318C153.199 19.9773 151.189 18.2703 148.354 18.2703C145.958 18.2703 144.389 19.4542 143.673 20.8859V18.6007H139.681V33ZM158.685 16.6459C159.979 16.6459 160.97 15.7098 160.97 14.4709C160.97 13.232 159.979 12.2959 158.685 12.2959C157.418 12.2959 156.427 13.232 156.427 14.4709C156.427 15.7098 157.418 16.6459 158.685 16.6459ZM154.83 38.1485C159.318 38.0934 160.694 36.2488 160.694 33.2478V18.6007H156.73V33.2753C156.73 34.4317 156.207 35.0649 154.83 35.175V38.1485ZM168.245 33.3029C170.503 33.3029 171.769 32.4218 172.595 31.2655V33H176.477V23.6116C176.477 19.702 173.972 18.2703 170.448 18.2703C166.924 18.2703 164.225 19.7846 163.978 23.1986H167.749C167.915 21.9596 168.631 21.1612 170.2 21.1612C172.017 21.1612 172.54 22.0973 172.54 23.8043V24.3825H170.916C166.511 24.3825 163.427 25.6489 163.427 29.0078C163.427 32.0364 165.63 33.3029 168.245 33.3029ZM169.429 30.5221C167.97 30.5221 167.337 29.8338 167.337 28.7876C167.337 27.2458 168.686 26.7502 170.998 26.7502H172.54V27.9616C172.54 29.5585 171.191 30.5221 169.429 30.5221Z" fill="black"/>
</svg>
